<?xml version="1.0" encoding="UTF-8"?><svg xmlns="http://www.w3.org/2000/svg" width="83" height="22" fill="#17494d" xmlns:v="https://vecta.io/nano"><path d="M25.888 17.044l1.002-2.458c1.097.853 2.53 1.304 3.96 1.304 1.05 0 1.718-.426 1.718-1.078-.024-1.806-6.322-.4-6.37-4.94-.024-2.307 1.932-4.088 4.7-4.088 1.646 0 3.292.426 4.46 1.405l-.936 2.5c-1.075-.726-2.404-1.23-3.668-1.23-.86 0-1.432.426-1.432.978.024 1.78 6.37.802 6.442 5.14 0 2.357-1.9 4.013-4.63 4.013-2.004 0-3.84-.502-5.25-1.555h0zm39.905-3.348c-.515.96-1.484 1.554-2.534 1.554-1.607 0-2.9-1.37-2.9-3.06s1.303-3.06 2.9-3.06c1.05 0 2.02.594 2.534 1.554L68.58 9.06c-1.044-1.957-3.034-3.28-5.32-3.28-3.366 0-6.095 2.87-6.095 6.408s2.73 6.408 6.095 6.408c2.286 0 4.276-1.323 5.32-3.28l-2.786-1.623zm-28.22 4.652h3.483V.45h-3.483v17.9zm32.765 0h3.483v-5.363l4.127 5.363H82.4l-5.25-6.37 4.867-5.944h-4.26l-3.936 4.942V.45h-3.483v17.9zM51.787 6.033v1.455c-.572-1.003-1.98-1.706-3.46-1.706-3.054 0-5.463 2.834-5.463 6.395s2.4 6.42 5.463 6.42c1.48 0 2.887-.702 3.46-1.706v1.455h3.483V6.033h-3.483zm0 7.687c-.5.878-1.55 1.53-2.72 1.53-1.608 0-2.9-1.37-2.9-3.06s1.303-3.06 2.9-3.06a3.16 3.16 0 0 1 2.72 1.58v3zM7.494.053c-1.13 0-2.044.962-2.044 2.15a2.2 2.2 0 0 0 .598 1.518 2 2 0 0 0 1.446.63h2.044V2.2C9.54 1.016 8.624.054 7.494.053m0 5.73h-5.45C.915 5.783 0 6.745 0 7.93s.915 2.15 2.044 2.15h5.45c1.128 0 2.044-.962 2.044-2.15s-.915-2.15-2.044-2.15m12.944 2.15c0-1.187-.915-2.15-2.044-2.15s-2.044.962-2.044 2.15v2.15h2.044c1.13-.001 2.045-.963 2.044-2.15m-5.45 0V2.2c.001-1.185-.914-2.147-2.044-2.15S10.9 1.012 10.9 2.2v5.73c0 1.187.915 2.15 2.044 2.15s2.045-.963 2.044-2.15m-2.044 13.6c1.13-.001 2.045-.963 2.044-2.15s-.914-2.147-2.044-2.15H10.9v2.15c0 1.186.915 2.15 2.044 2.15m0-5.73h5.45c1.128 0 2.044-.962 2.044-2.15s-.914-2.147-2.044-2.15h-5.45c-1.13 0-2.044.962-2.044 2.15a2.2 2.2 0 0 0 .598 1.518 2 2 0 0 0 1.446.63M0 13.66a2.2 2.2 0 0 0 .598 1.518 2 2 0 0 0 1.446.63c1.13-.001 2.045-.963 2.044-2.15v-2.15H2.044c-1.13 0-2.044.962-2.044 2.15m5.45 0v5.73c0 1.187.915 2.15 2.044 2.15s2.045-.963 2.044-2.15v-5.73a2.2 2.2 0 0 0-.598-1.518 2 2 0 0 0-1.446-.63c-1.13 0-2.044.962-2.044 2.15"/></svg>
