<?xml version="1.0" encoding="UTF-8"?><svg xmlns="http://www.w3.org/2000/svg" width="96" height="30" xmlns:v="https://vecta.io/nano"><path d="M51 8c0 1.108-.892 2-2 2s-2-.892-2-2 .862-2 2-2c1.138.03 2 .923 2 2zm-7.953 3.727v.485S42.083 11 40.032 11C36.643 11 34 13.515 34 17c0 3.454 2.61 6 6.032 6 2.083 0 3.015-1.243 3.015-1.243v.516a.42.42 0 0 0 .435.424H46V11.303h-2.518a.44.44 0 0 0-.435.424zM43 18.86c-.464.61-1.392 1.14-2.505 1.14C38.515 20 37 18.89 37 17s1.515-3 3.495-3c1.083 0 2.072.555 2.505 1.14v3.723zM47 22h3V11h-3v11zm43-10.873c-2.05 0-3.015 1.2-3.015 1.2V6H84v16.7h2.518a.44.44 0 0 0 .435-.42v-.5S87.917 23 89.97 23c3.39 0 6.03-2.52 6.03-5.937s-2.643-5.936-6-5.936zM89.505 20c-1.145 0-2.042-.528-2.505-1.14V15.14A3.49 3.49 0 0 1 89.505 14C91.485 14 93 15.11 93 17s-1.515 3-3.495 3zM83 16.055V23h-2.8v-6.605c0-1.922-.582-2.697-2.152-2.697-.843 0-1.714.465-2.267 1.147v8.125H73V11.3h2.21c.233 0 .407.217.407.434v.496c.814-.9 1.89-1.24 2.965-1.24 1.22 0 2.238.372 3.052 1.116.99.868 1.366 1.985 1.366 3.938zm-17-4.928c-2.052 0-3.016 1.2-3.016 1.2V6H60v16.7h2.518a.44.44 0 0 0 .435-.42v-.5S63.917 23 65.97 23c3.39 0 6.03-2.52 6.03-5.937.03-3.418-2.612-5.936-6-5.936zM65.505 20c-1.144 0-2.04-.528-2.505-1.14V15.14c.464-.556 1.454-1.14 2.505-1.14C67.484 14 69 15.11 69 17s-1.516 3-3.495 3zm-7.868-9c.898 0 1.363.155 1.363.155v2.76s-2.478-.838-4.026.93V23H52V11.3h2.508c.248 0 .434.217.434.434v.496c.558-.65 1.765-1.24 2.695-1.24zM27.604 21.32l-.452-1.08-.694-1.53-.03-.03a313.61 313.61 0 0 0-6.667-13.573l-.09-.18-.724-1.41c-.3-.54-.603-1.11-1.086-1.652C16.896.66 15.507 0 14.03 0c-1.508 0-2.866.66-3.86 1.802-.453.54-.784 1.11-1.086 1.652L8.36 4.865l-.09.18C5.945 9.55 3.682 14.114 1.6 18.618l-.03.06-.694 1.532c-.15.33-.3.7-.452 1.08-.393 1.11-.513 2.162-.362 3.243.33 2.253 1.84 4.144 3.92 4.985.784.33 1.6.48 2.443.48.242 0 .543-.03.784-.06.996-.12 2.022-.45 3.017-1.02 1.237-.69 2.413-1.682 3.74-3.123 1.327 1.44 2.534 2.432 3.74 3.123.996.57 2.02.9 3.017 1.02.24.03.543.06.784.06.845 0 1.7-.15 2.443-.48 2.112-.84 3.6-2.763 3.922-4.985.24-1.05.12-2.102-.272-3.213zM14 23c-1.533-2.042-2.526-3.964-2.867-5.585-.142-.69-.17-1.29-.086-1.832.057-.48.228-.9.454-1.26C12.04 13.5 12.95 13 14 13s1.987.48 2.498 1.322c.228.36.397.78.454 1.26.085.54.057 1.17-.085 1.832-.34 1.59-1.334 3.513-2.867 5.585zm11.947 1.154c-.2 1.55-1.258 2.892-2.726 3.488-.72.298-1.498.388-2.277.298-.75-.09-1.498-.327-2.277-.775-1.078-.596-2.157-1.52-3.416-2.892 1.978-2.416 3.176-4.622 3.625-6.59.2-.924.24-1.76.15-2.535a4.84 4.84 0 0 0-.809-2.028c-.93-1.342-2.487-2.117-4.225-2.117s-3.295.806-4.224 2.117c-.42.597-.69 1.282-.81 2.028a6.15 6.15 0 0 0 .15 2.535c.45 1.967 1.677 4.204 3.625 6.62-1.23 1.37-2.337 2.296-3.416 2.892-.78.447-1.528.686-2.277.775-.81.09-1.59-.03-2.277-.298-1.468-.597-2.517-1.94-2.727-3.49a4.92 4.92 0 0 1 .27-2.326c.09-.298.24-.596.4-.954.2-.477.45-.984.69-1.49l.03-.06c2.067-4.442 4.284-8.975 6.59-13.388l.09-.178.72-1.372c.24-.477.51-.924.838-1.312C12.285 2.388 13.124 2 14.053 2s1.768.388 2.397 1.104c.33.387.6.834.84 1.312l.72 1.372.1.178c2.277 4.443 4.494 8.975 6.56 13.418v.03c.24.477.45 1.014.69 1.49.15.358.3.656.39.954.24.775.33 1.52.2 2.296h0z" fill="#17494d" fill-rule="evenodd"/></svg>
