<?xml version="1.0" encoding="UTF-8"?><svg xmlns="http://www.w3.org/2000/svg" xmlns:xlink="http://www.w3.org/1999/xlink" width="105" height="31" xmlns:v="https://vecta.io/nano"><defs><path id="A" d="M.22.015h12.764V18.46H.22z"/></defs><g fill="none" fill-rule="evenodd"><path d="M13.94 4.586v-.312c0-.957-.126-1.727-.328-2.337.8.107 1.35 1.08 1.7 2.202l-1.372.448zm-1.8 9.535s-.95-.535-2.113-.535c-1.706 0-1.8 1.13-1.8 1.414 0 1.553 3.836 2.148 3.836 5.786 0 2.862-1.72 4.705-4.04 4.705-2.784 0-4.207-1.828-4.207-1.828l.745-2.598S6.043 22.4 7.278 22.4c.806 0 1.135-.67 1.135-1.16 0-2.026-3.147-2.116-3.147-5.445 0-2.802 1.905-5.513 5.752-5.513 1.482 0 2.214.448 2.214.448l-1.083 3.4zm-.63-13.083a.8.8 0 0 1 .47.167c-1.175.583-2.435 2.053-2.967 4.987l-2.24.732c.623-2.238 2.103-5.887 4.736-5.887h0zm1.46 3.694V4.9l-2.834.926c.546-2.222 1.568-3.295 2.462-3.7.225.596.372 1.452.372 2.606h0zm8.918 1.1a.28.28 0 0 0-.248-.244l-2.3-.18-1.684-1.766c-.166-.176-.492-.123-.618-.083l-.85.277C15.7 2.306 14.806.9 13.232.9L13.1.896C12.65.27 12.097 0 11.618 0 7.95 0 6.2 4.837 5.65 7.294l-2.566.84c-.795.263-.82.3-.925 1.08L0 26.794 16.214 30 25 27.994 21.896 5.84zm14.698 10.404c-.923-.486-1.398-.896-1.398-1.458 0-.717.66-1.177 1.7-1.177 1.2 0 2.27.486 2.27.486L40 11.6s-.777-.6-3.06-.6c-3.18 0-5.383 1.766-5.383 4.248 0 1.407 1.03 2.482 2.4 3.25 1.108.614 1.504 1.05 1.504 1.7 0 .665-.554 1.203-1.583 1.203-1.533 0-2.982-.768-2.982-.768L30 23.13s1.337.87 3.588.87c3.272 0 5.62-1.56 5.62-4.376 0-1.5-1.187-2.585-2.612-3.378m12.58-5.012c-1.525 0-2.725.74-3.65 1.864l-.05-.025L46.8 6h-3.45L40 24h3.45l1.15-6.153c.45-2.324 1.625-3.753 2.725-3.753.775 0 1.075.536 1.075 1.302a8.21 8.21 0 0 1-.15 1.558L46.95 24h3.45l1.35-7.277c.15-.766.25-1.685.25-2.298 0-1.992-1.025-3.2-2.825-3.2M58.4 21.298c-1.218 0-1.737-1.02-1.737-2.294 0-2.014 1.063-5.302 3.007-5.302 1.27 0 1.685 1.07 1.685 2.116 0 2.167-1.062 5.48-2.955 5.48M60.154 11C55.85 11 53 14.823 53 19.08c0 2.727 1.7 4.92 4.924 4.92C62.15 24 65 20.278 65 15.92c0-2.523-1.503-4.92-4.846-4.92m10.1 10.5c-.882 0-1.403-.517-1.403-.517l.566-3.336c.394-2.224 1.502-3.698 2.684-3.698 1.034 0 1.354 1 1.354 1.965 0 2.302-1.305 5.586-3.2 5.586m3.25-10.5c-2.293 0-3.595 2.12-3.595 2.12h-.05l.197-1.914h-3.004l-.7 4.733L64 29h3.398l.936-5.276h.074s.698.465 1.994.465C74.4 24.2 77 19.897 77 15.552 77 13.147 76 11 73.504 11M83.6 7A1.59 1.59 0 0 0 82 8.611c0 .825.527 1.4 1.317 1.4h.04c.87 0 1.622-.584 1.642-1.6A1.32 1.32 0 0 0 83.6 7M78 24h3.57L84 12h-3.595zm15.398-13.02h-2.48l.13-.6c.207-1.25.93-2.365 2.12-2.365a3.63 3.63 0 0 1 1.137.186L95 5.32S94.38 5 93.062 5c-1.266 0-2.532.372-3.488 1.223-1.215 1.063-1.783 2.604-2.067 4.145l-.103.6H85.75l-.517 2.763h1.654L85 24h3.566l1.886-10.257h2.455l.5-2.763z" fill="#17494d"/><g transform="translate(92 12)"><mask id="B" fill="#fff"><use xlink:href="#A"/></mask><path d="M9.47.015L6.42 8.732h-.05L5.54.015h-3.54l2.026 11.648c.05.26.024.415-.073.597a6.01 6.01 0 0 1-1.831 2.153c-.635.493-1.342.804-1.904 1.012l.927 3.036c.683-.156 2.1-.752 3.295-1.946 1.538-1.53 2.953-3.892 4.418-7.108l4.125-9.39H9.47z" fill="#17494d" mask="url(#B)"/></g></g></svg>
