<?xml version="1.0" encoding="UTF-8"?><svg xmlns="http://www.w3.org/2000/svg" width="158" height="24" xmlns:v="https://vecta.io/nano"><path d="M56.693 11.583c0-3.415-2.266-6.337-5.682-6.337s-5.752 2.96-5.752 6.337c0 3.34 2.266 6.26 5.682 6.26 1.43 0 2.545-.455 3.556-1.328l1.5 1.48.837-1.025-1.5-1.328c.872-1.138 1.36-2.58 1.36-4.06zm-2.266 3.15l-2.057-2.01-.837 1.025L53.6 15.68c-.697.53-1.57.91-2.545.91-2.545 0-4.393-2.24-4.393-5.047 0-2.77 1.848-5.047 4.393-5.047s4.393 2.24 4.393 5.047c0 1.252-.35 2.353-1.01 3.187h0zm12.864-2.24c0 2.618-1.3 4.022-3.416 4.022s-3.416-1.48-3.416-4.098V5.36h-1.3v7.134c0 3.49 1.917 5.274 4.706 5.274s4.706-1.86 4.706-5.426V5.36h-1.3v7.134zm75.823 4.098c-2.475 0-4.323-2.24-4.323-5.047 0-2.77 1.848-5.047 4.323-5.047 1.5 0 2.545.683 3.556 1.708l.837-1.025c-1.15-1.176-2.336-1.935-4.393-1.935-3.277 0-5.682 2.846-5.682 6.337s2.405 6.26 5.613 6.26c2.057 0 3.347-.835 4.497-2.163l-.837-.835c-1.01 1.062-2.022 1.745-3.59 1.745zm7.983-.228v-4.25h6.1v-1.252h-6.1V6.688h6.833V5.436h-8.123v12.256H158v-1.328h-6.903zm-30.538-10.9h-4.183v12.218h1.3v-4.326h2.72c2.405 0 4.393-1.404 4.393-4.022 0-2.428-1.638-3.87-4.218-3.87zm2.928 3.946c0 1.632-1.22 2.694-3.068 2.694h-2.79v-5.35h2.86c1.778-.076 2.998.873 2.998 2.656zm-83.91 1.442c-2.475-.53-3.068-1.252-3.068-2.39 0-1.1.94-1.935 2.405-1.935 1.15 0 2.196.38 3.277 1.328l.697-1.1c-1.15-1.025-2.266-1.48-3.904-1.48-2.127 0-3.695 1.404-3.695 3.34 0 2.01 1.22 2.96 3.765 3.567 2.336.53 2.928 1.176 2.928 2.315 0 1.252-1.01 2.087-2.475 2.087-1.57 0-2.72-.53-3.835-1.708l-.767 1.025c1.36 1.328 2.79 1.935 4.567 1.935 2.196 0 3.835-1.404 3.835-3.49-.105-1.935-1.255-2.846-3.73-3.49h0zm57.103 1.252h6.1v-1.252h-6.1V6.688h6.833V5.436H95.39v12.256h8.192v-1.328H96.68v-4.25zm13.526-1.252c-2.475-.53-3.068-1.252-3.068-2.39 0-1.1.94-1.935 2.405-1.935 1.15 0 2.196.38 3.277 1.328l.697-1.1c-1.15-1.025-2.266-1.48-3.904-1.48-2.127 0-3.695 1.404-3.695 3.34 0 2.01 1.22 2.96 3.765 3.567 2.336.53 2.928 1.176 2.928 2.315 0 1.252-1.01 2.087-2.475 2.087-1.57 0-2.72-.53-3.835-1.708l-.767 1.025c1.36 1.328 2.79 1.935 4.567 1.935 2.196 0 3.835-1.404 3.835-3.49-.105-1.935-1.255-2.846-3.73-3.49h0zm-34.86-5.464L70.22 17.692h1.3l1.36-3.263h6.1l1.3 3.263h1.36L76.494 5.398h-1.15zm-1.987 7.817l2.545-6.185 2.545 6.185h-5.1zm56.754-7.817l-5.125 12.294h1.3l1.36-3.263h6.1l1.3 3.263h1.36L131.26 5.398h-1.15zm-1.987 7.817l2.545-6.185 2.545 6.185h-5.1zm-35.42-4.098c0-1.025-.35-1.86-.837-2.466-.697-.76-1.778-1.252-3.207-1.252h-4.846v12.218h1.3V12.91h3.207l3.277 4.705h1.57l-3.416-4.97c1.673-.38 2.963-1.518 2.963-3.53h0zm-7.635 2.542v-4.97h3.486c1.778 0 2.86.91 2.86 2.39 0 1.556-1.22 2.466-2.928 2.466H85.07v.114zM4.366 13.062c.488.53 1.36.53 1.917 0l8.47-9.22c1.08-1.176 2.72-1.176 3.765 0 .488.53 1.36.53 1.917 0 .488-.53.488-1.48 0-2.087a5.06 5.06 0 0 0-7.53 0l-8.54 9.183c-.558.645-.558 1.48 0 2.125zM17.51 6.84c.488-.53.488-1.48 0-2.087-.488-.53-1.36-.53-1.917 0L7.155 14.05c-1.08 1.176-2.72 1.176-3.765 0-1.08-1.176-1.08-2.96 0-4.098l8.332-9.07c-1.08-1.176-2.72-1.176-3.765 0L1.543 7.864c-2.057 2.24-2.057 5.957 0 8.196a5.06 5.06 0 0 0 7.53 0l8.436-9.22zm1.01 1.025L9.98 17.16c-.488.53-.488 1.48 0 2.087.488.53 1.36.53 1.917 0l8.47-9.22c1.08-1.176 2.72-1.176 3.765 0s1.08 2.96 0 4.098L15.8 23.118c1.08 1.176 2.72 1.176 3.765 0l6.484-7.058c2.057-2.24 2.057-5.957 0-8.196-2.127-2.24-5.473-2.24-7.53 0h0zm4.706 3.074c-.488-.53-1.36-.53-1.917 0l-8.47 9.296c-1.08 1.176-2.72 1.176-3.765 0-.488-.53-1.36-.53-1.917 0-.488.53-.488 1.48 0 2.087a5.06 5.06 0 0 0 7.53 0l8.47-9.22c.558-.683.558-1.518.07-2.163z" fill="#17494d"/></svg>
