<?xml version="1.0" encoding="utf-8"?>
<!-- Generator: Adobe Illustrator 24.0.0, SVG Export Plug-In . SVG Version: 6.00 Build 0)  -->
<svg version="1.1" id="Layer_1" xmlns="http://www.w3.org/2000/svg" xmlns:xlink="http://www.w3.org/1999/xlink" x="0px" y="0px"
	 viewBox="0 0 1440 325" style="enable-background:new 0 0 1440 325;" xml:space="preserve">
<style type="text/css">
	.st0{clip-path:url(#SVGID_2_);}
	.st1{clip-path:url(#SVGID_4_);}
	.st2{fill:url(#w45va_1_);}
	.st3{clip-path:url(#SVGID_6_);fill:none;}
	.st4{clip-path:url(#SVGID_2_);fill:none;}
	.st5{fill:url(#w45vd_1_);}
	.st6{clip-path:url(#SVGID_8_);}
	.st7{fill:#57ABF7;}
	.st8{clip-path:url(#SVGID_10_);}
	.st9{fill:#2C8CF4;}
	.st10{clip-path:url(#SVGID_12_);}
	.st11{clip-path:url(#SVGID_16_);}
	.st12{clip-path:url(#SVGID_18_);}
</style>
<g>
	<defs>
		<rect id="SVGID_1_" y="1.1" width="1439.7" height="323.9"/>
	</defs>
	<clipPath id="SVGID_2_">
		<use xlink:href="#SVGID_1_"  style="overflow:visible;"/>
	</clipPath>
	<g class="st0">
		<defs>
			<rect id="SVGID_3_" width="1440" height="325"/>
		</defs>
		<clipPath id="SVGID_4_">
			<use xlink:href="#SVGID_3_"  style="overflow:visible;"/>
		</clipPath>
		<g class="st1">
			<g>
				
					<linearGradient id="w45va_1_" gradientUnits="userSpaceOnUse" x1="0" y1="163.5" x2="1440" y2="163.5" gradientTransform="matrix(1 0 0 -1 0 326)">
					<stop  offset="0" style="stop-color:#2C8CF4"/>
					<stop  offset="1.234252e-02" style="stop-color:#3592F5"/>
					<stop  offset="5.842260e-02" style="stop-color:#52A7F8"/>
					<stop  offset="0.1098" style="stop-color:#6BB7FB"/>
					<stop  offset="0.1678" style="stop-color:#7DC4FD"/>
					<stop  offset="0.2361" style="stop-color:#8ACDFE"/>
					<stop  offset="0.3244" style="stop-color:#92D2FF"/>
					<stop  offset="0.5056" style="stop-color:#94D4FF"/>
					<stop  offset="0.642" style="stop-color:#91D2FF"/>
					<stop  offset="0.7333" style="stop-color:#88CCFE"/>
					<stop  offset="0.8113" style="stop-color:#79C1FC"/>
					<stop  offset="0.8819" style="stop-color:#64B3FA"/>
					<stop  offset="0.9469" style="stop-color:#49A0F7"/>
					<stop  offset="1" style="stop-color:#2C8CF4"/>
				</linearGradient>
				<path id="w45va" class="st2" d="M0,325V0h1440v325H0z"/>
			</g>
		</g>
	</g>
	<g class="st0">
		<defs>
			<rect id="SVGID_5_" width="1440" height="325"/>
		</defs>
		<clipPath id="SVGID_6_">
			<use xlink:href="#SVGID_5_"  style="overflow:visible;"/>
		</clipPath>
		<rect class="st3" width="1440" height="325"/>
	</g>
	<rect class="st4" width="1440" height="325"/>
	<g class="st0">
		<g>
			<linearGradient id="w45vd_1_" gradientUnits="userSpaceOnUse" x1="891.6965" y1="250.0574" x2="1346.8718" y2="250.0574">
				<stop  offset="7.518238e-02" style="stop-color:#52A7F8"/>
				<stop  offset="0.1369" style="stop-color:#57AAF9"/>
				<stop  offset="0.5056" style="stop-color:#94D4FF"/>
				<stop  offset="0.642" style="stop-color:#91D2FF"/>
				<stop  offset="0.7333" style="stop-color:#88CCFE"/>
				<stop  offset="0.8113" style="stop-color:#79C1FC"/>
				<stop  offset="0.8819" style="stop-color:#64B3FA"/>
			</linearGradient>
			<path id="w45vd" class="st5" d="M964.3,129.1c100.2-46.4,180.4,57.9,217.1-20.8c36.7-78.6,212,6.9,153.7,169.2
				c-58.3,162.2-179.1-86-194.2,63.8c-15,149.8-160.8,55-209.7-7.6S864.1,175.5,964.3,129.1L964.3,129.1z"/>
		</g>
	</g>
	<g class="st0">
		<defs>
			<rect id="SVGID_7_" width="1440" height="325"/>
		</defs>
		<clipPath id="SVGID_8_">
			<use xlink:href="#SVGID_7_"  style="overflow:visible;"/>
		</clipPath>
		<g class="st6">
			<g>
				<path id="w45ve" class="st7" d="M765-80c-5.1,23.8-15.7,48.6-31.4,67.3c-15.2,18.1-37.5,33.6-60.5,38.4
					c-26.6,5.6-54,1.8-80.1-4.2c-30.5-7-72.4-3.6-102.5,15.7c-28.8,18.5-47.8,43.5-70.1,69c-32.4,37.1-73.7,69-125.5,65.2
					c-41.1-3-75.9-28-99.5-60.7c-14.9-20.7-25.8-44.1-33.9-68.2c-30.6-91.4-16.1-121.7-16.1-121.7L765-80z"/>
			</g>
		</g>
	</g>
	<g class="st0">
		<defs>
			<rect id="SVGID_9_" width="1440" height="325"/>
		</defs>
		<clipPath id="SVGID_10_">
			<use xlink:href="#SVGID_9_"  style="overflow:visible;"/>
		</clipPath>
		<g class="st8">
			<g>
				<path id="w45vf" class="st9" d="M1339.3,162.6c-25.2,15.4-6.6,82.2-28.7,88.6c-13.2,3.9-24.3-18.8-44.1-33.7
					c-7.8-5.8-16.8-10.5-27.9-11.8c-2.2-0.3-4.4-0.4-6.6-0.4c-6.5,0.1-13,1.2-19.1,3.3c-26.7,9-46.9,33.5-50.8,38.3
					c-1.8,2.2-4.3,5.2-7,8.8c-3.8,5-7.2,10.3-10.2,15.7c-5.5,10-9.9,21.7-10,33.8v0.3c0,4.8,0.7,9.7,2.4,14.5
					c4.1,12.3,13.3,22,24.9,29.3c6.4,4,13.5,7.2,20.9,9.7c13.4,4.5,27.9,6.6,42,5.6c33.8-2.6,44.4-23.7,77.7-19
					c19.9,2.8,45.1,14.6,46.9,30.1c2.1,17.7-28.2,23.7-39.3,55.1c-7,19.6-4.3,42.8,4.5,58.2c23.3,40.9,102,48.6,151.9,19.5
					c49.5-28.9,60.6-88.2,62.3-126.5c0.4-9.2,0.3-17.2,0-23.3c-0.2-4-0.5-8-0.9-12c-3.9-30.7-15.6-59-31.3-83.9
					c-39.9-63.1-106.5-103.9-142.2-103.9C1348.5,159,1343.4,160.2,1339.3,162.6"/>
			</g>
		</g>
	</g>
	<g class="st0">
		<defs>
			<rect id="SVGID_11_" width="1440" height="325"/>
		</defs>
		<clipPath id="SVGID_12_">
			<use xlink:href="#SVGID_11_"  style="overflow:visible;"/>
		</clipPath>
		<g class="st10">
			<g>
				<g id="w45vh">
					<g>
						<g>
							<defs>
								<path id="SVGID_13_" d="M1045,239.3c-7.8,10.2-5.9,22.9-5.4,26.8c0.6,4.1,4,24,20.2,30.2c15.3,5.8,33.5-3.8,41.4-18.2
									c7.2-13.1,7-32.2-5.2-43.6C1081,220.3,1055.6,225.2,1045,239.3"/>
							</defs>
							<clipPath id="SVGID_14_">
								<use xlink:href="#SVGID_13_"  style="overflow:visible;"/>
							</clipPath>
						</g>
					</g>
				</g>
			</g>
		</g>
	</g>
	<g class="st0">
		<defs>
			<rect id="SVGID_15_" width="1440" height="325"/>
		</defs>
		<clipPath id="SVGID_16_">
			<use xlink:href="#SVGID_15_"  style="overflow:visible;"/>
		</clipPath>
		<g class="st11">
			<g>
				<path id="w45vi" class="st9" d="M1255.2-151.4C1357.5-109.8,1336,20,1418.5-6.8s139.4,159.8-19,227.8s-59.3-189.6-179.1-98.5
					c-119.8,91.2-149.9-80.1-137.5-158.6C1095.4-114.5,1152.9-193,1255.2-151.4L1255.2-151.4z"/>
			</g>
		</g>
	</g>
	<g class="st0">
		<defs>
			<rect id="SVGID_17_" width="1440" height="325"/>
		</defs>
		<clipPath id="SVGID_18_">
			<use xlink:href="#SVGID_17_"  style="overflow:visible;"/>
		</clipPath>
		<g class="st12">
			<g>
				<path id="w45vj" class="st9" d="M16.8-108c16.9-1.9,59.2,2.2,94,22.8s52,65.2,50.5,96.9c-1.6,31.7,8.9,56.4,30.3,67.4
					c21.4,10.9,34.9,3.4,57.2,0.6s77.1,12.4,85.2,61s-33.9,94.5-62.1,108.9s-43.8,34.4-25.1,55.7c9.6,11,43.8,38.5,26.4,65
					c-83.2,126.5-333.1-9.6-376.5-177C-142.6,42-74.6-97.3,16.8-108"/>
			</g>
		</g>
	</g>
</g>
</svg>
