<?xml version="1.0" encoding="utf-8"?>
<!-- Generator: Adobe Illustrator 24.0.0, SVG Export Plug-In . SVG Version: 6.00 Build 0)  -->
<svg version="1.1" id="Layer_1" xmlns="http://www.w3.org/2000/svg" xmlns:xlink="http://www.w3.org/1999/xlink" x="0px" y="0px"
	 viewBox="0 0 409.6 380.8" style="enable-background:new 0 0 409.6 380.8;" xml:space="preserve">
<style type="text/css">
	.st0{fill:#050D30;}
	.st1{fill:#4960E4;}
</style>
<path class="st0" d="M299.9,104.7h-23.8V56.5c0-18.1-14.6-32.7-32.7-32.7h-77.2c-18,0-32.7,14.7-32.7,32.7v48.2h-23.8V56.5
	C109.8,25.3,135,0,166.2,0h77.2c31.2,0,56.4,25.3,56.5,56.5V104.7z"/>
<path class="st0" d="M360.5,380.8H49.1c-27.1,0-49-22-49.1-49.1V119.1C0,92,22,70,49.1,70h311.5c27.1,0,49,22,49.1,49.1v212.7
	C409.6,358.9,387.6,380.8,360.5,380.8z M49.1,93.8c-14,0-25.3,11.3-25.3,25.3v212.7c0,14,11.3,25.3,25.3,25.3h311.5
	c14,0,25.3-11.3,25.3-25.3V119.1c0-14-11.3-25.3-25.3-25.3H49.1z"/>
<path class="st1" d="M49.2,81.7c-18.4,0-33.3,14.8-33.3,33.2c0,2.7,0.3,5.3,0.9,7.9C35.4,197.9,103.6,254,184.2,254h41.2
	c80.6,0,148.8-56.1,167.3-131.2c4.3-17.8-6.6-35.8-24.5-40.2c-2.6-0.6-5.2-0.9-7.9-0.9C360.3,81.7,49.2,81.7,49.2,81.7z"/>
<path class="st0" d="M225.4,265.9h-41.2c-41.5-0.1-81.8-14.2-114.3-40C38,200.5,15.3,165.2,5.4,125.6c-5.9-24.2,8.9-48.6,33.2-54.5
	c3.5-0.9,7.1-1.3,10.7-1.3h311.1c24.9,0,45.2,20.2,45.2,45.1c0,3.6-0.4,7.2-1.3,10.7c-9.9,39.6-32.6,74.8-64.5,100.2
	C307.2,251.7,266.9,265.8,225.4,265.9L225.4,265.9z M49.2,93.6c-6.6,0-12.9,3-16.9,8.2c-4.1,5.1-5.5,11.8-3.9,18.2
	c17.6,71.8,81.9,122.3,155.8,122.2h41.2c73.9,0.1,138.3-50.4,155.8-122.2c1.6-6.3,0.1-13-3.9-18.1c-4.1-5.2-10.3-8.3-16.9-8.2
	L49.2,93.6L49.2,93.6z"/>
<path class="st1" d="M128.5,288.5h-13.8c-8.9,0-16.1-7.2-16.1-16.1v-48.3c0-8.9,7.2-16.1,16.1-16.1h13.8c8.9,0,16.1,7.2,16.1,16.1
	v48.3C144.6,281.3,137.4,288.5,128.5,288.5z"/>
<path class="st0" d="M128.5,300.4h-13.8c-15.5,0-28-12.5-28-28v-48.3c0-15.5,12.5-28,28-28h13.8c15.5,0,28,12.5,28,28v48.3
	C156.5,287.9,144,300.4,128.5,300.4z M114.7,219.9c-2.3,0-4.2,1.9-4.2,4.2v48.3c0,2.3,1.9,4.2,4.2,4.2h13.8c2.3,0,4.2-1.9,4.2-4.2
	v-48.3c0-2.3-1.9-4.2-4.2-4.2H114.7z"/>
<path class="st1" d="M294.9,288.5h-13.8c-8.9,0-16.1-7.2-16.1-16.1v-48.3c0-8.9,7.2-16.1,16.1-16.1h13.8c8.9,0,16.1,7.2,16.1,16.1
	v48.3C311,281.3,303.8,288.5,294.9,288.5z"/>
<path class="st0" d="M294.9,300.4h-13.8c-15.5,0-28-12.5-28-28v-48.3c0-15.5,12.5-28,28-28h13.8c15.5,0,28,12.5,28,28v48.3
	C322.9,287.9,310.4,300.4,294.9,300.4z M281.1,219.9c-2.3,0-4.2,1.9-4.2,4.2v48.3c0,2.3,1.9,4.2,4.2,4.2h13.8c2.3,0,4.2-1.9,4.2-4.2
	v-48.3c0-2.3-1.9-4.2-4.2-4.2H281.1z"/>
</svg>
