<?xml version="1.0" encoding="utf-8"?>
<!-- Generator: Adobe Illustrator 24.0.0, SVG Export Plug-In . SVG Version: 6.00 Build 0)  -->
<svg version="1.1" id="Layer_1" xmlns="http://www.w3.org/2000/svg" xmlns:xlink="http://www.w3.org/1999/xlink" x="0px" y="0px"
	 viewBox="0 0 479.8 512" style="enable-background:new 0 0 479.8 512;" xml:space="preserve">
<style type="text/css">
	.st0{fill:#050D30;}
	.st1{fill:#4960E4;}
</style>
<path class="st0" d="M308,512H61.9c-8,0-14.4-6.5-14.4-14.4V227.2c0-4.3,2-8.4,5.4-11.2l178-143.7c5.3-4.3,12.8-4.3,18.1,0L427,216
	c3.4,2.7,5.4,6.9,5.4,11.2v269.6c-0.2,8-6.8,14.3-14.8,14c-7.7-0.2-13.8-6.4-14-14V234.1L239.9,102L76.3,234.1v249.1H308
	c8,0.2,14.3,6.8,14,14.8C321.8,505.6,315.7,511.8,308,512z"/>
<path class="st0" d="M465.4,209.8c-3.3,0-6.4-1.1-9-3.2L239.9,32.9L23.5,206.7c-6.2,5-15.3,4-20.3-2.2s-4-15.3,2.2-20.3l225.5-181
	c5.3-4.2,12.8-4.2,18.1,0l225.5,181c6.2,5,7.2,14.1,2.2,20.3C473.9,207.8,469.8,209.8,465.4,209.8L465.4,209.8z"/>
<ellipse transform="matrix(0.1602 -0.9871 0.9871 0.1602 -3.5291 411.2363)" class="st1" cx="239.9" cy="207.7" rx="42.9" ry="43"/>
<path class="st0" d="M239.9,265.1c-31.7,0-57.4-25.7-57.4-57.4s25.7-57.4,57.4-57.4s57.4,25.7,57.4,57.4
	C297.2,239.4,271.6,265,239.9,265.1z M239.9,179.2c-15.8,0-28.5,12.8-28.5,28.5s12.8,28.5,28.5,28.5s28.5-12.8,28.5-28.5
	C268.4,191.9,255.6,179.2,239.9,179.2z"/>
<path class="st1" d="M171.8,325.7h136.1v171.9H171.8V325.7z"/>
<path class="st0" d="M308,512H171.8c-8,0-14.4-6.5-14.4-14.4V325.7c0-8,6.5-14.4,14.4-14.4H308c8,0,14.4,6.5,14.4,14.4v171.9
	C322.4,505.5,316,512,308,512z M186.2,483.1h107.3v-143H186.2V483.1z M420.4,165.4c-7.9,0-14.4-6.5-14.4-14.4V73.3h-28.6
	c-8,0-14.4-6.5-14.4-14.4s6.5-14.4,14.4-14.4h43c8,0,14.4,6.5,14.4,14.4v92C434.8,158.9,428.4,165.3,420.4,165.4
	C420.4,165.3,420.4,165.4,420.4,165.4z"/>
</svg>
